<?xml version="1.0" encoding="utf-8"?>
<!-- Generator: Adobe Illustrator 27.5.0, SVG Export Plug-In . SVG Version: 6.00 Build 0)  -->
<svg version="1.1" id="PRINT" xmlns="http://www.w3.org/2000/svg" xmlns:xlink="http://www.w3.org/1999/xlink" x="0px" y="0px"
	 viewBox="0 0 500 500" style="enable-background:new 0 0 500 500;" xml:space="preserve">
<g>
	
		<rect id="CUSTOM-Background_00000140711782801488810830000015175388008639639205_" style="fill:#242733;" width="500" height="500"/>
	<text transform="matrix(1 0 0 1 153.4688 261.2254)" style="fill:#FFFFFF; font-family:'Alata-Regular'; font-size:77.3259px;">Medical</text>
	
		<text transform="matrix(1 0 0 1 151.9416 299.8797)" style="fill:#FFFFFF; font-family:'Raleway'; font-size:26.7889px; letter-spacing:2;">Healthcare</text>
	
		<linearGradient id="CUSTOM_00000063626772104059672480000013227861371669245100_" gradientUnits="userSpaceOnUse" x1="341.8618" y1="-135.7839" x2="341.8618" y2="-55.0272" gradientTransform="matrix(-0.6925 0.7214 0.7214 0.6925 422.1438 76.3226)">
		<stop  offset="0" style="stop-color:#2AF598"/>
		<stop  offset="1" style="stop-color:#009EFD"/>
	</linearGradient>
	
		<path id="CUSTOM_00000167364554571000672030000011285236050719710087_" style="fill:url(#CUSTOM_00000063626772104059672480000013227861371669245100_);" d="
		M77.232,266.329l25.764,24.735c10.54,10.119,27.347,9.776,37.466-0.764c9.888-10.299,9.784-26.582-0.06-36.762l-4.439-24.88
		c-0.019-0.105-0.043-0.207-0.071-0.307c-0.832-6.551-4.024-12.77-9.066-17.611c-2.973-2.854-6.368-5.034-10.099-6.488
		c-0.131-0.055-0.263-0.105-0.396-0.151c-0.064-0.024-0.128-0.05-0.193-0.073l-0.004,0.01c-2.203-0.674-4.696-0.113-6.401,1.662
		c-2.413,2.514-2.332,6.508,0.182,8.921c2.514,2.413,6.507,2.332,8.921-0.182c0.398-0.415,0.727-0.871,0.99-1.353
		c0.915,0.667,1.794,1.402,2.631,2.205c8.576,8.233,9.82,20.903,2.773,28.244c-7.047,7.34-19.757,6.614-28.333-1.619
		c-0.837-0.804-1.607-1.652-2.311-2.539c0.471-0.282,0.913-0.629,1.311-1.044c2.413-2.514,2.332-6.507-0.182-8.92
		c-2.513-2.413-6.507-2.332-8.921,0.182c-1.704,1.775-2.163,4.289-1.4,6.463l-0.01,0.004c0.026,0.064,0.054,0.126,0.081,0.189
		c0.051,0.131,0.107,0.261,0.167,0.39c1.605,3.669,3.921,6.972,6.894,9.827c5.198,4.991,11.779,7.957,18.577,8.387
		c0.155,0.047,0.315,0.085,0.48,0.108l24.678,3.382c7.104,7.778,7.046,19.88-0.352,27.586c-7.71,8.03-20.515,8.292-28.546,0.582
		l-25.764-24.735c1.603-3.55,0.9-7.881-2.066-10.729c-3.764-3.614-9.767-3.491-13.381,0.273c-3.614,3.764-3.491,9.767,0.273,13.381
		C69.394,267.55,73.75,268.075,77.232,266.329z M129.782,247.904c0.984-1.025,1.857-2.129,2.619-3.299l1.251,7.012l-7.053-0.967
		C127.734,249.844,128.799,248.927,129.782,247.904z M70.797,260.151c-1.255-1.205-1.296-3.206-0.091-4.46
		c1.205-1.255,3.205-1.296,4.46-0.091c1.255,1.205,1.296,3.206,0.091,4.46C74.053,261.314,72.052,261.355,70.797,260.151z"/>
	
		<linearGradient id="CUSTOM_00000135667081846150947260000001995605076927894950_" gradientUnits="userSpaceOnUse" x1="-65.9676" y1="-157.4199" x2="-65.9676" y2="-48.273" gradientTransform="matrix(0.0025 -1 -1 -0.0025 275.4245 224.9953)">
		<stop  offset="0" style="stop-color:#2AF598"/>
		<stop  offset="1" style="stop-color:#009EFD"/>
	</linearGradient>
	<path id="CUSTOM" style="fill:url(#CUSTOM_00000135667081846150947260000001995605076927894950_);" d="M423.729,282.369
		c-3.89-0.01-7.22,2.48-8.46,5.95c0,0-45.6-0.01-91.73-0.01v5.99c46.12,0,91.71,0.01,91.71,0.01c1.23,3.47,4.55,5.98,8.44,5.99
		c4.94,0.01,8.97-4,8.99-8.95C432.689,286.409,428.68,282.379,423.729,282.369z M423.699,294.319c-1.64-0.01-2.98-1.35-2.97-3
		c0-1.64,1.34-2.98,2.99-2.97c1.65,0,2.98,1.34,2.98,2.99C426.689,292.989,425.349,294.319,423.699,294.319z"/>
</g>
</svg>
